<?xml version="1.0" encoding="UTF-8"?>
<svg id="Layer_1" xmlns="http://www.w3.org/2000/svg" xmlns:xlink="http://www.w3.org/1999/xlink" version="1.1" viewBox="0 0 1366 768">
  <!-- Generator: Adobe Illustrator 30.3.0, SVG Export Plug-In . SVG Version: 2.1.3 Build 182)  -->
  <defs>
    <style>
      .st0, .st1, .st2 {
        fill: none;
      }

      .st3 {
        font-size: 87.61px;
      }

      .st3, .st4, .st5 {
        isolation: isolate;
      }

      .st3, .st6, .st5 {
        fill: #fff8e1;
      }

      .st3, .st5 {
        font-family: Charm-Regular, Charm;
      }

      .st1, .st7 {
        stroke-width: 3px;
      }

      .st1, .st7, .st2 {
        stroke-miterlimit: 10;
      }

      .st1, .st2 {
        stroke: #fff8e1;
      }

      .st7 {
        stroke: #757c5a;
      }

      .st7, .st8 {
        fill: #757c5a;
      }

      .st2 {
        stroke-width: 5px;
      }

      .st9 {
        clip-path: url(#clippath-1);
      }

      .st10 {
        clip-path: url(#clippath-3);
      }

      .st11 {
        clip-path: url(#clippath-4);
      }

      .st12 {
        clip-path: url(#clippath-2);
      }

      .st13 {
        clip-path: url(#clippath-5);
      }

      .st14 {
        fill: #f4ad9a;
      }

      .st15 {
        fill: #fff;
      }

      .st16 {
        clip-path: url(#clippath);
      }

      .st5 {
        font-size: 85.86px;
      }
    </style>
    <clipPath id="clippath">
      <polygon class="st0" points="709.08 525.69 709.89 561.62 689.65 561.62 689.65 525.69 709.08 525.69"/>
    </clipPath>
    <clipPath id="clippath-1">
      <polygon class="st0" points="709.08 525.69 709.89 561.62 730.09 560.72 728.49 524.82 709.08 525.69"/>
    </clipPath>
    <clipPath id="clippath-2">
      <rect class="st0" x="801.66" y="269.56" width="26.25" height="46.7"/>
    </clipPath>
    <clipPath id="clippath-3">
      <rect class="st0" x="827.91" y="269.56" width="26.25" height="46.7"/>
    </clipPath>
    <clipPath id="clippath-4">
      <polygon class="st0" points="827.68 274.21 828.53 308.78 807.05 308.78 807.05 274.21 827.68 274.21"/>
    </clipPath>
    <clipPath id="clippath-5">
      <polygon class="st0" points="827.68 274.21 828.53 308.78 849.98 307.73 848.28 273.18 827.68 274.21"/>
    </clipPath>
  </defs>
  <path id="outline" class="st2" d="M992.29,330.17c28.48,163.44-80.91,319.01-244.32,347.49-137.64,23.99-269.73-49.83-325-171.36"/>
  <path id="outline1" class="st2" d="M401.95,321.83c23.97-117.56,117.5-214.14,242.85-236"/>
  <g class="st4">
    <text class="st5" transform="translate(498.98 334.92) scale(1.44 1)"><tspan x="0" y="0">Mit</tspan></text>
  </g>
  <g class="st4">
    <text class="st3" transform="translate(369.2 459.53) scale(1.56 1)"><tspan x="0" y="0">Madunivers</tspan></text>
  </g>
  <g id="_x3C_Mirror_Repeat_x3E_8">
    <g class="st16">
      <path class="st14" d="M710.22,561.62s-25.65-21.43-19.64-32.68c1.29-2.41,4.04-3.66,6.72-3.16,3.25.6,8.45,3.72,11.13,11.59l1.5-.04.27,24.3h.02Z"/>
    </g>
  </g>
  <g id="_x3C_Mirror_Repeat_x3E_9">
    <g class="st9">
      <path class="st14" d="M709.56,561.64s24.67-22.55,18.18-33.52c-1.39-2.35-4.2-3.47-6.87-2.85-3.2.75-8.26,4.1-10.61,12.07h-1.52l.81,24.32v-.02h.01Z"/>
    </g>
  </g>
  <line class="st1" x1="687.53" y1="543.23" x2="616.11" y2="543.23"/>
  <path class="st7" d="M692.42,543.23"/>
  <line class="st1" x1="803.65" y1="543.23" x2="732.23" y2="543.23"/>
  <path id="gryde1" class="st6" d="M729.46,239.39v15.35s-13.22-10.75-23.74-11.37-13.81,1.87-14.98,3.68-4.17,13.5,9.93,11.53c14.1-1.97,18.66,12.04,18.66,12.04,0,0-2.59,7.01,7.93,7.19l.6,23.39s-7.54,33.99,71.05,34.53c78.59.53,97.05-6.12,97.05-6.12,0,0,29.76-5.94,30.77-30.21.99-24.27,0-24.11,0-24.11,0,0,8.26,0,7.42-8.88s25.73-13.56,25.73-13.56c0,0,9.64-9.13-6.29-13.5-15.93-4.36-32.99,18.31-32.99,18.31,0,0-1.95.64-1.4-1.4s4.05-5.2,4.05-5.2l-.29-15.21s-107.51,23.66-193.46,3.47l-.04.06h0Z"/>
  <path id="låg1" class="st6" d="M811.61,202.13s-50.6,2.16-77.89,18.33c-27.29,16.17,0,15.44,0,15.44,0,0,112.28,9.45,178.05-1.66,64.27-10.87-43.9-30.13-43.9-30.13,0,0-12.54-2.63-27.68-1.95,0,0,16.81-19.73-15.04-20.53-31.86-.8-13.54,20.53-13.54,20.53l.02-.02h-.02Z"/>
  <path class="st8" d="M739.99,226.26l-4.19,2.98s40.06,8.96,72.76,4.71c0,0-53.5-2.18-68.58-7.69h.02-.01Z"/>
  <path class="st8" d="M815.23,207.54s0,2.61,4.11,3.08-40.3,2.49-66.22,11.08c0,0,22.75-12.31,62.11-14.18v.02Z"/>
  <path class="st8" d="M837.98,207.54s-1.58,2.03-4.89,3.08,52.14,2.06,74.75,15.52c0,0-15,2.43-14.53,3.14s24.5-2.57,23.22-3-17.49-12.62-49.26-16.36-29.27-2.4-29.27-2.4l-.02.02h0Z"/>
  <path class="st8" d="M816.38,189.2s12.35-2.28,19.05,1.23c0,0,3.21,1.17,2.14-1.97s-22.46-3.14-21.21.74h.02Z"/>
  <g>
    <g id="_x3C_Mirror_Repeat_x3E_4">
      <g class="st12">
        <path class="st15" d="M829.06,278.52s-6.49-8.02-12.31-8.84c-.86-.12-1.83-.14-2.82-.12-6.68.21-12.06,5.08-12.27,11.12v.25c-.06,3.14,1.01,6.52,2.4,9.56,2.34,5.08,8.49,11.86,12.89,15.68l11.59,10.09.51-37.73h0Z"/>
      </g>
    </g>
    <g id="_x3C_Mirror_Repeat_x3E_5">
      <g class="st10">
        <path class="st15" d="M826.76,278.52s6.49-8.02,12.31-8.84c.86-.12,1.83-.14,2.82-.12,6.68.21,12.06,5.08,12.27,11.12v.25c.06,3.14-1.01,6.52-2.4,9.56-2.34,5.08-8.49,11.86-12.89,15.68l-11.59,10.09-.51-37.73h0Z"/>
      </g>
    </g>
  </g>
  <g>
    <g id="_x3C_Mirror_Repeat_x3E_6">
      <g class="st11">
        <path class="st8" d="M828.88,308.78s-27.23-20.63-20.86-31.45c1.38-2.32,4.27-3.51,7.15-3.04,3.43.58,8.96,3.6,11.82,11.14l1.6-.04.29,23.39h0Z"/>
      </g>
    </g>
    <g id="_x3C_Mirror_Repeat_x3E_7">
      <g class="st13">
        <path class="st8" d="M828.18,308.8s26.18-21.93,19.3-32.43c-1.48-2.26-4.46-3.31-7.28-2.69-3.41.74-8.78,4.03-11.26,11.71l-1.6.04.84,23.37h0Z"/>
      </g>
    </g>
  </g>
  <path class="st6" d="M824.48,113.38s-2.51-14.3,11.3-15.62c10.36-.97,14.26,2.98,15.58,5.04.45.72.9,1.44,1.42,2.14,2.26,3.08,7.28,13.19-8.55,28.61,0,0-8.26,6.82-8.08,12.52.19,5.69,6.1,10.73,6.1,10.73,0,0,7.17,4.56-.72,13.83,0,0,10.24-5.2,2.69-15.95-7.54-10.73-.72-16.42-.72-16.42,0,0,6.7-5.78,13.4-14.35,2.32-2.96,12.41-21.64-8.59-29.66-21-8.02-27.79,13.59-23.82,19.11l-.02.02h.01Z"/>
  <path class="st6" d="M814.18,160.61c-.66-6.45-13.83-13.48-13.83-13.48,0,0-13.87-7.85-18.64-20.7-4.77-12.85,5.2-20.04,5.2-20.04,0,0,8.53-6.8,19.65-3.02,11.12,3.8,8.55,14.22,8.55,14.22,0,0,4.46-2.77-.33-12.31-4.79-9.54-18.64-8.02-18.64-8.02,0,0-17.33,1.54-20.47,18.35-2.3,12.27,4.21,20.43,9.54,25.26,1.36,1.23,2.84,2.32,4.46,3.27,3.43,1.97,10.91,6.12,11.96,6.64,1.42.7,15.19,8.98,12.66,17.96l.84-1.91-.9-6.21-.04-.02h-.01Z"/>
</svg>